<?xml version="1.0" encoding="UTF-8"?><svg id="Layer_2" xmlns="http://www.w3.org/2000/svg" width="282.53mm" height="269.67mm" xmlns:xlink="http://www.w3.org/1999/xlink" viewBox="0 0 800.87 764.43"><defs><style>.cls-1{fill:url(#linear-gradient);stroke-width:0px;}</style><linearGradient id="linear-gradient" x1="158.12" y1="746.41" x2="844.71" y2="59.82" gradientUnits="userSpaceOnUse"><stop offset="0" stop-color="#3cb389"/><stop offset=".01" stop-color="#3eb389"/><stop offset=".2" stop-color="#60bd89"/><stop offset=".39" stop-color="#7ac589"/><stop offset=".59" stop-color="#8dcb89"/><stop offset=".79" stop-color="#99ce89"/><stop offset="1" stop-color="#9dd089"/></linearGradient></defs><g id="Layer_1-2"><path class="cls-1" d="M204.5,561.23c4.42,4.39,6.64,9.79,6.64,16.2s-2.16,12-6.48,16.36c-4.32,4.35-10.14,6.53-17.45,6.53h-8.99v-45.56l8.99-.1c7.11,0,12.87,2.19,17.3,6.58ZM318.53,291.18c-15.08,0-27.3,12.22-27.3,27.3s12.22,27.3,27.3,27.3,27.3-12.22,27.3-27.3-12.22-27.3-27.3-27.3ZM800.87,464.1c0,165.6-134.73,300.33-300.33,300.33h-200.22C134.73,764.43,0,629.7,0,464.1c0-35.13,28.58-63.71,63.71-63.71h36.62l47.49-110.85c43.83-87.73,121.8-120.57,173.2-107.75l30.75,7.68c21.9,5.48,45.24,1.47,64.03-11.06,50.73-33.84,120.21-23,158.2,24.74l4.48,5.65L753.02,9.31c4.97-5.67,11.77-8.77,18.73-9.24,6.97-.47,14.1,1.69,19.77,6.65,11.36,9.94,12.53,27.2,2.6,38.54l-181.09,206.94,117.96,148.21h6.19c35.13,0,63.71,28.58,63.71,63.71ZM227.44,577.53c0-10.87-3.78-19.94-11.34-27.22-7.56-7.28-17.19-10.92-28.9-10.92h-24.66v76.29h24.66c11.91,0,21.6-3.62,29.05-10.87,7.45-7.25,11.18-16.34,11.18-27.28ZM254.61,539.39h-15.68v76.29h15.68v-76.29ZM344.06,577.53c0-2.58-.25-4.88-.73-6.9h-40.65v14.32h23.41c-.84,4.95-3.08,8.88-6.74,11.81-3.66,2.93-8.24,4.39-13.74,4.39-6.48,0-12.02-2.3-16.62-6.9-4.6-4.6-6.9-10.17-6.9-16.72s2.32-12.02,6.95-16.62c4.63-4.6,10.15-6.9,16.56-6.9,6.9,0,12.68,2.61,17.35,7.84l14-8.36c-3.69-4.81-8.27-8.59-13.74-11.34-5.47-2.75-11.34-4.13-17.61-4.13-10.94,0-20.24,3.87-27.9,11.6-7.73,7.73-11.6,17.03-11.6,27.9s3.85,20.29,11.55,28.06c7.7,7.77,17.02,11.65,27.95,11.65s20.69-3.66,27.8-10.97,10.66-16.89,10.66-28.74ZM371.23,539.39h-15.68v76.29h15.68v-76.29ZM467.48,539.39h-15.99l-24.98,42.74-24.98-42.74h-15.99v76.29h15.68v-49.64l21.11,36.16h8.36l21.11-36.16v49.64h15.68v-76.29ZM531.02,600.62h-33.65v-16.93h30.51v-14.11h-30.51v-15.88h32.61v-14.32h-48.18v76.29h49.22v-15.05ZM594.24,593.41c0-4.25-.94-7.92-2.82-11.02-1.88-3.1-4.23-5.43-7.05-7-2.82-1.57-5.89-3-9.2-4.29-3.31-1.29-6.37-2.35-9.2-3.19-2.82-.84-5.17-1.97-7.05-3.4-1.88-1.43-2.82-3.12-2.82-5.07,0-2.09,1.01-3.83,3.03-5.22,2.02-1.39,4.67-2.09,7.94-2.09,2.65.07,5.29.72,7.94,1.93,2.65,1.22,4.77,2.87,6.38,4.96l10.87-8.67c-3.28-4.18-7.21-7.28-11.81-9.3-4.6-2.02-9.23-3.03-13.9-3.03-7.8,0-14.02,2-18.65,6.01-4.63,4.01-6.95,9.21-6.95,15.62,0,3.62.7,6.81,2.09,9.56,1.39,2.75,3.22,4.93,5.49,6.53,2.26,1.6,4.75,3.01,7.47,4.23,2.72,1.22,5.42,2.26,8.1,3.14,2.68.87,5.16,1.78,7.42,2.72,2.26.94,4.09,2.11,5.49,3.5,1.39,1.39,2.09,3.07,2.09,5.02,0,2.65-1.06,4.74-3.19,6.27-2.13,1.53-4.96,2.3-8.52,2.3-6.69,0-12.79-2.68-18.29-8.05l-9.72,9.93c7.32,8.22,16.62,12.33,27.9,12.33h.42c7.94,0,14.35-2.18,19.23-6.53,4.88-4.35,7.32-10.08,7.32-17.19ZM657.36,593.41c0-4.25-.94-7.92-2.82-11.02-1.88-3.1-4.23-5.43-7.05-7-2.82-1.57-5.89-3-9.2-4.29-3.31-1.29-6.37-2.35-9.2-3.19-2.82-.84-5.17-1.97-7.05-3.4-1.88-1.43-2.82-3.12-2.82-5.07,0-2.09,1.01-3.83,3.03-5.22,2.02-1.39,4.67-2.09,7.94-2.09,2.65.07,5.29.72,7.94,1.93,2.65,1.22,4.77,2.87,6.38,4.96l10.87-8.67c-3.28-4.18-7.21-7.28-11.81-9.3-4.6-2.02-9.23-3.03-13.9-3.03-7.8,0-14.02,2-18.65,6.01-4.63,4.01-6.95,9.21-6.95,15.62,0,3.62.7,6.81,2.09,9.56,1.39,2.75,3.22,4.93,5.49,6.53,2.26,1.6,4.75,3.01,7.47,4.23,2.72,1.22,5.42,2.26,8.1,3.14,2.68.87,5.16,1.78,7.42,2.72,2.26.94,4.09,2.11,5.49,3.5,1.39,1.39,2.09,3.07,2.09,5.02,0,2.65-1.06,4.74-3.19,6.27-2.13,1.53-4.96,2.3-8.52,2.3-6.69,0-12.79-2.68-18.29-8.05l-9.72,9.93c7.32,8.22,16.62,12.33,27.9,12.33h.42c7.94,0,14.35-2.18,19.23-6.53,4.88-4.35,7.32-10.08,7.32-17.19ZM661.2,400.39l-84.72-106.44-37.19,42.48c-5.41,6.17-12.98,9.35-20.58,9.35-6.39,0-12.75-2.22-17.92-6.75-11.36-9.94-12.53-27.16-2.6-38.5l43.73-49.98-10.67-13.44c-11.01-13.85-27-21.7-43.66-23.36,2.37,4.04,3.84,8.7,3.84,13.72,0,15.07-12.23,27.3-27.3,27.3s-26.21-11.34-27.12-25.6c-29.83,16.65-65.09,21.6-98.47,13.26l-30.82-7.71c-25.57-6.46-78.42,13.9-110.38,77.78l-37.65,87.88h60.4c-1.02-2.86-1.67-5.9-1.67-9.1,0-15.07,12.23-27.3,27.3-27.3s27.3,12.23,27.3,27.3c0,3.2-.65,6.24-1.67,9.1h112.55c-1.02-2.86-1.67-5.9-1.67-9.1,0-15.07,12.23-27.3,27.3-27.3s27.3,12.23,27.3,27.3c0,3.2-.65,6.24-1.67,9.1h226.03Z"/></g></svg>